<svg width="299" height="339" viewBox="0 0 299 339" fill="none" xmlns="http://www.w3.org/2000/svg">
<rect x="8" y="12" width="278" height="307" rx="23" fill="white"/>
<path fill-rule="evenodd" clip-rule="evenodd" d="M68 29H27C24.2386 29 22 31.2386 22 34V265C22 267.761 24.2386 270 27 270H33V87C33 79.268 39.268 73 47 73H199V34C199 31.2386 196.761 29 194 29H156V51C156 57.0751 151.075 62 145 62H79C72.9249 62 68 57.0751 68 51V29ZM94 29C91.7909 29 90 30.7909 90 33V38C90 40.2091 91.7909 42 94 42H130C132.209 42 134 40.2091 134 38V33C134 30.7909 132.209 29 130 29H94Z" fill="#2E688E"/>
<path fill-rule="evenodd" clip-rule="evenodd" d="M55 105C55 100.029 59.0294 96 64 96H203C207.971 96 212 100.029 212 105V236H160C153.925 236 149 240.925 149 247V301H64C59.0294 301 55 296.971 55 292V105ZM143.986 175.829C141.375 175.869 138.751 174.893 136.759 172.901L120.071 156.213C116.166 152.308 116.166 145.976 120.071 142.071C123.976 138.166 130.308 138.166 134.213 142.071L143.986 151.844L167.444 128.386C171.349 124.481 177.681 124.481 181.586 128.386C185.491 132.291 185.491 138.623 181.586 142.528L151.213 172.901C149.221 174.893 146.597 175.869 143.986 175.829ZM95 157C89.4772 157 85 161.477 85 167C85 172.523 89.4772 177 95 177H111C116.523 177 121 172.523 121 167C121 161.477 116.523 157 111 157H95ZM85 201C85 195.477 89.4772 191 95 191H176C181.523 191 186 195.477 186 201C186 206.523 181.523 211 176 211H95C89.4771 211 85 206.523 85 201ZM95 222C89.4772 222 85 226.477 85 232C85 237.523 89.4771 242 95 242H128C133.523 242 138 237.523 138 232C138 226.477 133.523 222 128 222H95ZM95 256C89.4772 256 85 260.477 85 266C85 271.523 89.4771 276 95 276H128C133.523 276 138 271.523 138 266C138 260.477 133.523 256 128 256H95ZM168 258V300L213 258H168Z" fill="#C2CB4A"/>
<path d="M242.196 83.728V61.662H221.31V54.464H242.196V34.286H249.63V54.464H269.808V61.662H249.63V83.728H242.196Z" fill="#2E688E"/>
<path d="M229.098 128.842V120.936H262.138V128.842H229.098Z" fill="#2E688E"/>
<path d="M226.012 224L241.468 201.728L226.3 180.128H233.884L245.308 196.352L256.252 180.128H263.356L249.148 201.44L265.276 224H257.404L245.308 206.912L233.884 224H226.012Z" fill="#2E688E"/>
<path d="M224.378 273.842V265.936H266.858V273.842H224.378ZM246.09 256.024C244.674 256.024 243.455 255.513 242.432 254.49C241.409 253.467 240.898 252.248 240.898 250.832C240.898 249.337 241.409 248.079 242.432 247.056C243.533 245.955 244.753 245.404 246.09 245.404C247.585 245.404 248.843 245.955 249.866 247.056C250.889 248.157 251.4 249.416 251.4 250.832C251.4 252.248 250.889 253.467 249.866 254.49C248.843 255.513 247.585 256.024 246.09 256.024ZM246.208 294.728C244.792 294.728 243.533 294.256 242.432 293.312C241.331 292.289 240.78 291.031 240.78 289.536C240.78 287.963 241.331 286.665 242.432 285.642C243.612 284.619 244.871 284.108 246.208 284.108C247.545 284.108 248.725 284.659 249.748 285.76C250.849 286.861 251.4 288.12 251.4 289.536C251.4 290.952 250.889 292.171 249.866 293.194C248.843 294.217 247.624 294.728 246.208 294.728Z" fill="#2E688E"/>
</svg>
